<svg width="200" height="200" xmlns="http://www.w3.org/2000/svg">
  <rect width="200" height="200" fill="#f0f0f0"/>
  <rect x="20" y="20" width="40" height="40" fill="#333"/>
  <rect x="140" y="20" width="40" height="40" fill="#333"/>
  <rect x="20" y="140" width="40" height="40" fill="#333"/>
  <rect x="70" y="20" width="10" height="10" fill="#333"/>
  <rect x="90" y="20" width="10" height="10" fill="#333"/>
  <rect x="110" y="20" width="10" height="10" fill="#333"/>
  <rect x="20" y="70" width="10" height="10" fill="#333"/>
  <rect x="20" y="90" width="10" height="10" fill="#333"/>
  <rect x="20" y="110" width="10" height="10" fill="#333"/>
  <rect x="70" y="70" width="10" height="10" fill="#333"/>
  <rect x="90" y="90" width="10" height="10" fill="#333"/>
  <rect x="110" y="110" width="10" height="10" fill="#333"/>
  <rect x="70" y="140" width="10" height="10" fill="#333"/>
  <rect x="90" y="140" width="10" height="10" fill="#333"/>
  <rect x="110" y="140" width="10" height="10" fill="#333"/>
  <rect x="140" y="70" width="10" height="10" fill="#333"/>
  <rect x="140" y="90" width="10" height="10" fill="#333"/>
  <rect x="140" y="110" width="10" height="10" fill="#333"/>
  <rect x="70" y="40" width="10" height="10" fill="#333"/>
  <rect x="100" y="70" width="10" height="10" fill="#333"/>
  <rect x="130" y="100" width="10" height="10" fill="#333"/>
  <text x="100" y="175" text-anchor="middle" font-size="14" fill="#999">扫码加入</text>
</svg>